<svg width="512" height="512" viewBox="0 0 512 512" fill="none" xmlns="http://www.w3.org/2000/svg">
<rect width="512" height="512" rx="100" fill="#FED631"/>
<path d="M298.131 71.1534C297.657 65.9451 295.55 61.8968 291.81 59.0085C288.116 56.0729 282.837 54.6051 275.972 54.6051C271.426 54.6051 267.638 55.197 264.608 56.3807C261.578 57.5644 259.305 59.1979 257.79 61.2812C256.275 63.3172 255.493 65.661 255.446 68.3125C255.351 70.4905 255.777 72.4081 256.724 74.0653C257.719 75.7225 259.139 77.1903 260.986 78.4688C262.88 79.6998 265.152 80.7888 267.804 81.7358C270.455 82.6828 273.438 83.5114 276.753 84.2216L289.253 87.0625C296.45 88.625 302.795 90.7083 308.287 93.3125C313.827 95.9167 318.467 99.018 322.207 102.616C325.995 106.215 328.86 110.358 330.801 115.045C332.742 119.733 333.737 124.989 333.784 130.812C333.737 139.998 331.417 147.882 326.824 154.463C322.231 161.045 315.626 166.087 307.009 169.591C298.438 173.095 288.093 174.847 275.972 174.847C263.803 174.847 253.197 173.024 244.153 169.378C235.11 165.732 228.079 160.192 223.06 152.759C218.041 145.325 215.46 135.926 215.318 124.562H248.983C249.267 129.25 250.522 133.156 252.747 136.281C254.973 139.406 258.027 141.774 261.909 143.384C265.839 144.993 270.384 145.798 275.545 145.798C280.28 145.798 284.305 145.159 287.619 143.881C290.981 142.602 293.562 140.827 295.361 138.554C297.16 136.281 298.083 133.677 298.131 130.741C298.083 127.995 297.231 125.652 295.574 123.71C293.917 121.722 291.36 120.017 287.903 118.597C284.494 117.129 280.138 115.779 274.835 114.548L259.636 110.997C247.042 108.109 237.122 103.445 229.878 97.0057C222.634 90.5189 219.035 81.7595 219.082 70.7273C219.035 61.7311 221.45 53.8475 226.327 47.0767C231.204 40.3059 237.951 35.0265 246.568 31.2386C255.186 27.4508 265.01 25.5568 276.043 25.5568C287.312 25.5568 297.089 27.4744 305.375 31.3097C313.708 35.0975 320.171 40.4242 324.764 47.2898C329.357 54.1553 331.701 62.1098 331.795 71.1534H298.131ZM351.54 173V27.5455H411.625C422.515 27.5455 431.914 29.6761 439.821 33.9375C447.776 38.1515 453.907 44.0464 458.216 51.6222C462.525 59.1506 464.679 67.91 464.679 77.9006C464.679 87.9384 462.477 96.7216 458.074 104.25C453.718 111.731 447.491 117.531 439.395 121.651C431.298 125.77 421.687 127.83 410.56 127.83H373.486V100.131H404.026C409.329 100.131 413.756 99.2074 417.307 97.3608C420.905 95.5142 423.628 92.9337 425.474 89.6193C427.321 86.2576 428.244 82.3513 428.244 77.9006C428.244 73.4025 427.321 69.5199 425.474 66.2528C423.628 62.9384 420.905 60.3816 417.307 58.5824C413.708 56.7831 409.281 55.8835 404.026 55.8835H386.696V173H351.54ZM223.042 328H185.258L234.335 182.545H281.138L330.215 328H292.431L258.269 219.193H257.133L223.042 328ZM217.999 270.756H296.977V297.46H217.999V270.756ZM345.379 328V307.972L416.046 211.097H345.45V182.545H460.506V202.574L389.839 299.449H460.435V328H345.379ZM302.126 337.545V483H266.969V337.545H302.126ZM461.483 410.273C461.483 426.277 458.405 439.842 452.25 450.969C446.095 462.096 437.761 470.547 427.25 476.324C416.786 482.1 405.044 484.989 392.023 484.989C378.955 484.989 367.188 482.077 356.724 476.253C346.26 470.429 337.951 461.977 331.795 450.898C325.688 439.771 322.634 426.229 322.634 410.273C322.634 394.269 325.688 380.704 331.795 369.577C337.951 358.45 346.26 349.998 356.724 344.222C367.188 338.445 378.955 335.557 392.023 335.557C405.044 335.557 416.786 338.445 427.25 344.222C437.761 349.998 446.095 358.45 452.25 369.577C458.405 380.704 461.483 394.269 461.483 410.273ZM425.545 410.273C425.545 400.803 424.196 392.801 421.497 386.267C418.846 379.733 415.01 374.785 409.991 371.423C405.02 368.062 399.03 366.381 392.023 366.381C385.063 366.381 379.073 368.062 374.054 371.423C369.035 374.785 365.176 379.733 362.477 386.267C359.826 392.801 358.5 400.803 358.5 410.273C358.5 419.742 359.826 427.744 362.477 434.278C365.176 440.812 369.035 445.76 374.054 449.122C379.073 452.484 385.063 454.165 392.023 454.165C399.03 454.165 405.02 452.484 409.991 449.122C415.01 445.76 418.846 440.812 421.497 434.278C424.196 427.744 425.545 419.742 425.545 410.273Z" fill="black"/>
</svg>
