<svg width="512" height="512" viewBox="0 0 512 512" fill="none" xmlns="http://www.w3.org/2000/svg">
<g clip-path="url(#clip0_9_144)">
<rect width="512" height="512" fill="#FED631"/>
<path d="M182.854 204.768C182.025 195.654 178.338 188.569 171.792 183.515C165.329 178.378 156.09 175.809 144.075 175.809C136.121 175.809 129.492 176.845 124.189 178.916C118.886 180.988 114.909 183.846 112.257 187.492C109.606 191.055 108.238 195.157 108.156 199.797C107.99 203.608 108.736 206.964 110.393 209.864C112.133 212.764 114.619 215.333 117.85 217.57C121.165 219.725 125.142 221.63 129.782 223.288C134.422 224.945 139.642 226.395 145.442 227.638L167.317 232.609C179.912 235.344 191.015 238.99 200.627 243.547C210.322 248.104 218.442 253.531 224.988 259.829C231.617 266.126 236.63 273.376 240.027 281.58C243.424 289.783 245.164 298.98 245.247 309.172C245.164 325.247 241.104 339.043 233.067 350.56C225.029 362.078 213.47 370.902 198.39 377.034C183.392 383.166 165.287 386.232 144.075 386.232C122.78 386.232 104.22 383.041 88.3935 376.661C72.5672 370.281 60.2625 360.586 51.4794 347.577C42.6963 334.568 38.1804 318.121 37.9318 298.234H96.8452C97.3423 306.438 99.5381 313.273 103.433 318.742C107.327 324.211 112.671 328.354 119.466 331.171C126.343 333.988 134.298 335.397 143.33 335.397C151.616 335.397 158.659 334.278 164.459 332.041C170.342 329.804 174.858 326.697 178.006 322.719C181.155 318.742 182.771 314.185 182.854 309.048C182.771 304.242 181.279 300.14 178.379 296.743C175.479 293.263 171.005 290.28 164.956 287.794C158.99 285.225 151.367 282.864 142.087 280.71L115.489 274.495C93.4479 269.441 76.0888 261.279 63.4112 250.01C50.7337 238.658 44.4363 223.329 44.5192 204.023C44.4363 188.279 48.6622 174.483 57.1967 162.634C65.7313 150.785 77.5388 141.546 92.6193 134.918C107.7 128.289 124.893 124.974 144.2 124.974C163.92 124.974 181.031 128.33 195.531 135.042C210.115 141.671 221.425 150.992 229.462 163.007C237.5 175.022 241.601 188.942 241.767 204.768H182.854ZM276.32 383V128.455H381.469C400.527 128.455 416.974 132.183 430.812 139.641C444.732 147.015 455.463 157.331 463.003 170.589C470.543 183.763 474.313 199.093 474.313 216.576C474.313 234.142 470.46 249.513 462.754 262.688C455.131 275.779 444.235 285.93 430.066 293.138C415.897 300.347 399.076 303.952 379.604 303.952H314.725V255.479H368.17C377.45 255.479 385.197 253.863 391.412 250.631C397.709 247.4 402.474 242.884 405.705 237.084C408.937 231.201 410.553 224.365 410.553 216.576C410.553 208.704 408.937 201.91 405.705 196.192C402.474 190.392 397.709 185.918 391.412 182.769C385.115 179.621 377.367 178.046 368.17 178.046H337.843V383H276.32Z" fill="black"/>
<rect x="-0.70637" y="0.407823" width="154.408" height="679.399" transform="matrix(-0.417095 0.908863 -0.995646 -0.0932169 608.617 440.995)" fill="#D9D9D9" fill-opacity="0.4" stroke="black"/>
<line y1="-1" x2="95.3342" y2="-1" transform="matrix(-0.417095 0.908863 -0.995646 -0.0932169 77.405 390.117)" stroke="black" stroke-width="2"/>
<line y1="-1" x2="125.371" y2="-1" transform="matrix(-0.417095 0.908863 -0.995646 -0.0932169 42.298 386.83)" stroke="black" stroke-width="2"/>
<line x1="1.5" y1="-1.5" x2="123.871" y2="-1.5" transform="matrix(-0.417095 0.908863 -0.995646 -0.0932169 217.833 403.265)" stroke="black" stroke-width="3" stroke-linecap="round"/>
<line y1="-1" x2="95.3342" y2="-1" transform="matrix(-0.417095 0.908863 -0.995646 -0.0932169 182.726 399.978)" stroke="black" stroke-width="2"/>
<line y1="-1" x2="95.3342" y2="-1" transform="matrix(-0.417095 0.908863 -0.995646 -0.0932169 288.047 409.838)" stroke="black" stroke-width="2"/>
<line y1="-1" x2="95.3342" y2="-1" transform="matrix(-0.417095 0.908863 -0.995646 -0.0932169 252.94 406.552)" stroke="black" stroke-width="2"/>
<line y1="-1" x2="95.3342" y2="-1" transform="matrix(-0.417095 0.908863 -0.995646 -0.0932169 323.155 413.125)" stroke="black" stroke-width="2"/>
<line y1="-1" x2="95.3342" y2="-1" transform="matrix(-0.417095 0.908863 -0.995646 -0.0932169 358.262 416.412)" stroke="black" stroke-width="2"/>
<line x1="1.5" y1="-1.5" x2="123.871" y2="-1.5" transform="matrix(-0.417095 0.908863 -0.995646 -0.0932169 393.369 419.699)" stroke="black" stroke-width="3" stroke-linecap="round"/>
<line y1="-1" x2="95.3342" y2="-1" transform="matrix(-0.417095 0.908863 -0.995646 -0.0932169 428.476 422.986)" stroke="black" stroke-width="2"/>
<line y1="-1" x2="95.3342" y2="-1" transform="matrix(-0.417095 0.908863 -0.995646 -0.0932169 463.583 426.273)" stroke="black" stroke-width="2"/>
<line y1="-1" x2="95.3342" y2="-1" transform="matrix(-0.417095 0.908863 -0.995646 -0.0932169 498.69 429.56)" stroke="black" stroke-width="2"/>
<line y1="-1" x2="95.3342" y2="-1" transform="matrix(-0.417095 0.908863 -0.995646 -0.0932169 533.797 432.847)" stroke="black" stroke-width="2"/>
<line y1="-1" x2="95.3342" y2="-1" transform="matrix(-0.417095 0.908863 -0.995646 -0.0932169 498.69 429.56)" stroke="black" stroke-width="2"/>
<line y1="-1" x2="95.3342" y2="-1" transform="matrix(-0.417095 0.908863 -0.995646 -0.0932169 7.19067 383.543)" stroke="black" stroke-width="2"/>
<line x1="1.5" y1="-1.5" x2="123.871" y2="-1.5" transform="matrix(-0.417095 0.908863 -0.995646 -0.0932169 42.298 386.83)" stroke="black" stroke-width="3" stroke-linecap="round"/>
<line y1="-1" x2="95.3342" y2="-1" transform="matrix(-0.417095 0.908863 -0.995646 -0.0932169 147.619 396.691)" stroke="black" stroke-width="2"/>
<line y1="-1" x2="95.3342" y2="-1" transform="matrix(-0.417095 0.908863 -0.995646 -0.0932169 112.512 393.404)" stroke="black" stroke-width="2"/>
<rect x="0.70637" y="0.407823" width="154.408" height="679.399" transform="matrix(0.417095 0.908863 0.995646 -0.0932169 -121.039 -16.2889)" fill="#D9D9D9" fill-opacity="0.4" stroke="black"/>
<line y1="-1" x2="95.3342" y2="-1" transform="matrix(0.417095 0.908863 0.995646 -0.0932169 410.763 -65.883)" stroke="black" stroke-width="2"/>
<line y1="-1" x2="125.371" y2="-1" transform="matrix(0.417095 0.908863 0.995646 -0.0932169 445.87 -69.1698)" stroke="black" stroke-width="2"/>
<line x1="1.5" y1="-1.5" x2="123.871" y2="-1.5" transform="matrix(0.417095 0.908863 0.995646 -0.0932169 270.335 -52.7354)" stroke="black" stroke-width="3" stroke-linecap="round"/>
<line y1="-1" x2="95.3342" y2="-1" transform="matrix(0.417095 0.908863 0.995646 -0.0932169 305.442 -56.0222)" stroke="black" stroke-width="2"/>
<line y1="-1" x2="95.3342" y2="-1" transform="matrix(0.417095 0.908863 0.995646 -0.0932169 200.121 -46.1616)" stroke="black" stroke-width="2"/>
<line y1="-1" x2="95.3342" y2="-1" transform="matrix(0.417095 0.908863 0.995646 -0.0932169 235.228 -49.4485)" stroke="black" stroke-width="2"/>
<line y1="-1" x2="95.3342" y2="-1" transform="matrix(0.417095 0.908863 0.995646 -0.0932169 165.013 -42.8747)" stroke="black" stroke-width="2"/>
<line y1="-1" x2="95.3342" y2="-1" transform="matrix(0.417095 0.908863 0.995646 -0.0932169 129.906 -39.5879)" stroke="black" stroke-width="2"/>
<line x1="1.5" y1="-1.5" x2="123.871" y2="-1.5" transform="matrix(0.417095 0.908863 0.995646 -0.0932169 94.7994 -36.3009)" stroke="black" stroke-width="3" stroke-linecap="round"/>
<line y1="-1" x2="95.3342" y2="-1" transform="matrix(0.417095 0.908863 0.995646 -0.0932169 59.6921 -33.0141)" stroke="black" stroke-width="2"/>
<line y1="-1" x2="95.3342" y2="-1" transform="matrix(0.417095 0.908863 0.995646 -0.0932169 24.5853 -29.7272)" stroke="black" stroke-width="2"/>
<line y1="-1" x2="95.3342" y2="-1" transform="matrix(0.417095 0.908863 0.995646 -0.0932169 -10.522 -26.4403)" stroke="black" stroke-width="2"/>
<line y1="-1" x2="95.3342" y2="-1" transform="matrix(0.417095 0.908863 0.995646 -0.0932169 -10.522 -26.4403)" stroke="black" stroke-width="2"/>
<line y1="-1" x2="95.3342" y2="-1" transform="matrix(0.417095 0.908863 0.995646 -0.0932169 480.977 -72.4567)" stroke="black" stroke-width="2"/>
<line x1="1.5" y1="-1.5" x2="123.871" y2="-1.5" transform="matrix(0.417095 0.908863 0.995646 -0.0932169 445.87 -69.1698)" stroke="black" stroke-width="3" stroke-linecap="round"/>
<line y1="-1" x2="95.3342" y2="-1" transform="matrix(0.417095 0.908863 0.995646 -0.0932169 340.549 -59.3091)" stroke="black" stroke-width="2"/>
<line y1="-1" x2="95.3342" y2="-1" transform="matrix(0.417095 0.908863 0.995646 -0.0932169 375.656 -62.596)" stroke="black" stroke-width="2"/>
</g>
<defs>
<clipPath id="clip0_9_144">
<rect width="512" height="512" fill="white"/>
</clipPath>
</defs>
</svg>
